<?xml version="1.0" standalone="no"?>
<!DOCTYPE svg PUBLIC "-//W3C//DTD SVG 20010904//EN"
 "http://www.w3.org/TR/2001/REC-SVG-20010904/DTD/svg10.dtd">
<svg version="1.0" xmlns="http://www.w3.org/2000/svg"
 width="4096.000000pt" height="4096.000000pt" viewBox="0 0 4096.000000 4096.000000"
 preserveAspectRatio="xMidYMid meet">
<metadata>
Created by potrace 1.14, written by Peter Selinger 2001-2017
</metadata>
<g transform="translate(0.000000,4096.000000) scale(0.100000,-0.100000)"
fill="#000000" stroke="none">
<path d="M27507 38344 c-1 -1 -108 -5 -237 -8 -129 -4 -251 -9 -270 -11 -19
-1 -81 -6 -137 -9 -55 -4 -112 -9 -125 -11 -12 -2 -61 -6 -108 -10 -47 -4 -92
-8 -100 -10 -8 -1 -44 -6 -80 -9 -36 -4 -76 -9 -90 -11 -43 -6 -108 -15 -152
-20 -24 -3 -68 -10 -98 -15 -30 -5 -73 -12 -95 -15 -38 -5 -57 -9 -115 -20
-41 -8 -73 -14 -115 -21 -22 -3 -92 -17 -155 -31 -63 -13 -126 -27 -140 -29
-100 -19 -476 -117 -651 -169 -1068 -317 -2046 -804 -2978 -1482 -500 -363
-1058 -872 -1491 -1359 -178 -200 -388 -455 -478 -579 -20 -27 -39 -52 -42
-55 -6 -5 -147 -199 -189 -260 -110 -158 -314 -473 -372 -573 -19 -33 -43 -73
-53 -90 -142 -236 -431 -805 -504 -992 -8 -22 -19 -44 -23 -50 -23 -32 -210
-519 -289 -755 -94 -280 -221 -725 -260 -914 -4 -23 -24 -120 -44 -216 -20
-96 -39 -191 -42 -210 -3 -19 -7 -42 -9 -50 -3 -8 -7 -35 -10 -59 -3 -24 -7
-47 -9 -50 -2 -3 -7 -35 -11 -71 -4 -36 -8 -67 -10 -70 -2 -3 -6 -30 -9 -60
-4 -30 -9 -66 -11 -80 -8 -47 -23 -176 -40 -340 -3 -30 -8 -71 -10 -90 -2 -19
-7 -82 -11 -140 -3 -58 -8 -123 -9 -145 -21 -268 -21 -944 0 -1185 2 -19 6
-84 10 -144 4 -60 8 -116 10 -125 1 -9 6 -54 10 -101 4 -47 9 -93 10 -102 2
-9 7 -48 10 -85 4 -37 9 -75 10 -84 2 -9 6 -40 10 -70 3 -30 9 -67 11 -84 3
-16 7 -44 10 -62 17 -136 97 -552 138 -728 130 -545 284 -1028 481 -1503 40
-97 87 -208 105 -247 72 -159 118 -256 176 -373 l62 -123 -7080 -7077 c-6423
-6421 -7340 -7338 -7373 -7376 -336 -382 -556 -793 -674 -1261 -98 -393 -114
-852 -41 -1240 5 -27 12 -66 15 -85 17 -105 93 -356 152 -500 66 -164 175
-370 273 -518 54 -82 105 -155 112 -163 8 -8 21 -24 29 -36 69 -100 340 -374
479 -484 144 -114 240 -179 400 -272 173 -100 528 -244 695 -282 11 -2 47 -11
80 -19 33 -8 77 -17 99 -20 21 -4 41 -8 45 -10 3 -2 30 -7 60 -10 30 -4 64 -9
75 -11 86 -19 555 -29 671 -14 232 29 253 32 300 43 6 1 37 8 70 15 120 25
402 114 480 151 142 67 221 103 225 104 5 1 141 78 175 99 151 94 296 200 417
307 82 74 197 186 654 640 l320 320 1780 -1779 c1135 -1134 1806 -1798 1854
-1833 152 -112 282 -180 447 -234 57 -18 113 -36 125 -38 71 -14 139 -26 183
-31 56 -7 269 -8 300 -2 11 3 47 8 80 11 33 4 78 12 100 18 22 5 47 12 55 14
224 52 447 173 640 347 123 111 5294 5286 5347 5352 159 197 288 485 318 710
3 22 7 56 10 75 8 52 8 267 1 330 -35 278 -138 534 -304 755 -25 33 -844 860
-1821 1838 -977 977 -1778 1782 -1779 1787 -2 6 1044 1059 2325 2341 1280
1281 2672 2674 3092 3094 420 421 765 765 767 765 2 0 79 -37 171 -83 188 -93
398 -187 608 -272 77 -32 149 -61 160 -66 81 -35 420 -152 630 -217 343 -107
764 -210 1105 -271 63 -11 129 -23 145 -26 33 -6 193 -30 265 -40 25 -3 59 -8
76 -11 36 -5 86 -11 164 -19 30 -3 71 -8 90 -10 37 -5 93 -10 225 -20 44 -4
96 -8 115 -10 244 -26 1002 -26 1352 0 173 13 225 17 244 20 11 2 52 6 90 10
70 6 89 9 179 20 28 3 64 8 80 10 17 2 53 7 80 10 28 3 59 8 71 10 12 3 52 9
90 15 38 5 83 12 99 15 17 3 66 12 110 20 99 18 116 21 185 34 84 17 87 17
210 45 63 15 124 28 135 31 56 11 438 112 465 123 8 3 17 6 20 7 86 23 348
107 440 140 163 59 347 127 365 135 11 5 85 36 165 69 287 118 754 342 960
461 36 20 88 50 115 65 40 22 240 141 350 208 149 92 655 443 758 527 7 5 75
60 152 121 398 317 801 696 1135 1068 41 46 80 89 85 95 66 72 294 348 421
511 197 252 592 846 719 1080 60 112 99 181 105 190 14 18 235 458 279 555
171 375 333 793 439 1135 54 173 92 300 97 323 2 11 12 50 23 88 33 110 116
462 138 584 3 14 14 70 24 125 11 55 22 114 24 130 3 17 12 71 20 120 15 87
22 137 31 207 2 18 6 49 9 68 3 19 8 55 11 80 4 25 8 56 10 70 2 14 7 63 10
110 4 47 8 92 10 100 3 15 17 177 20 240 15 240 19 391 19 700 -1 458 -10 632
-59 1080 -9 84 -16 145 -20 170 -2 14 -7 48 -10 75 -3 28 -8 61 -10 75 -3 14
-7 39 -9 55 -49 307 -117 645 -186 915 -7 25 -13 50 -14 55 -14 55 -24 91 -63
225 -100 350 -268 826 -378 1075 -8 17 -36 82 -63 145 -177 408 -437 898 -669
1258 -29 45 -53 87 -53 92 0 4 -3 10 -7 12 -8 3 -53 64 -53 72 0 10 -328 476
-350 496 -3 3 -18 23 -34 45 -63 85 -352 442 -386 475 -3 3 -25 28 -49 55
-188 213 -518 550 -705 720 -54 50 -104 95 -110 101 -38 36 -313 268 -371 314
-38 30 -72 57 -75 60 -8 10 -208 161 -325 246 -186 136 -611 417 -675 447 -8
4 -27 15 -42 25 -30 19 -198 116 -273 157 -27 15 -54 31 -60 35 -5 4 -53 29
-105 56 -52 26 -102 54 -110 60 -8 7 -18 13 -23 13 -4 0 -73 33 -155 72 -142
69 -244 117 -307 144 -16 7 -55 24 -85 37 -86 39 -431 176 -554 220 -197 70
-427 144 -581 187 -60 17 -123 35 -140 40 -135 43 -728 177 -865 196 -14 2
-70 11 -125 20 -187 30 -220 35 -265 40 -25 3 -56 8 -70 10 -14 2 -54 7 -90
11 -36 3 -72 7 -81 9 -8 2 -53 6 -100 10 -46 4 -91 8 -100 10 -8 2 -65 6 -125
10 -60 4 -129 9 -154 10 -131 9 -667 24 -673 19z m398 -5968 c28 -3 75 -8 105
-11 62 -7 174 -22 206 -29 12 -2 38 -7 59 -10 20 -4 68 -13 107 -22 39 -9 75
-17 82 -18 109 -23 449 -131 521 -166 11 -5 63 -28 115 -50 180 -78 511 -265
625 -352 6 -5 53 -40 105 -79 519 -390 934 -921 1189 -1519 129 -304 202 -568
260 -945 11 -69 14 -103 27 -260 12 -157 6 -491 -11 -620 -2 -16 -7 -52 -10
-80 -16 -129 -50 -328 -71 -410 -9 -33 -18 -67 -20 -75 -16 -67 -85 -289 -104
-335 -4 -11 -20 -51 -35 -90 -131 -342 -345 -703 -605 -1020 -94 -114 -334
-358 -439 -445 -29 -25 -59 -50 -65 -55 -52 -49 -387 -285 -403 -285 -4 0 -14
-6 -22 -14 -44 -38 -315 -177 -487 -249 -164 -68 -408 -152 -501 -172 -10 -2
-49 -11 -88 -20 -38 -9 -81 -19 -95 -22 -14 -2 -43 -8 -65 -13 -22 -5 -62 -12
-90 -16 -27 -3 -58 -8 -69 -10 -10 -2 -44 -6 -75 -10 -31 -3 -69 -8 -86 -10
-174 -21 -538 -21 -740 0 -16 2 -61 7 -100 11 -38 3 -72 8 -75 10 -3 2 -23 6
-45 9 -130 19 -121 18 -300 59 -89 20 -211 56 -285 83 -36 13 -68 24 -72 24
-4 0 -19 5 -35 12 -15 6 -30 12 -33 13 -6 2 -20 8 -130 52 -207 84 -584 295
-725 405 -5 4 -57 44 -115 89 -829 646 -1339 1588 -1427 2639 -10 113 -10 492
0 604 8 90 31 274 42 331 109 568 288 1008 599 1465 66 98 190 259 261 340
113 129 382 385 493 470 18 14 45 35 60 48 47 39 283 197 382 255 111 65 339
180 400 202 3 1 22 9 42 18 21 10 40 17 44 17 3 0 20 7 37 15 50 23 286 101
363 120 38 9 80 20 94 25 14 5 41 12 60 15 19 3 51 10 70 15 33 9 62 14 135
26 17 2 41 6 55 9 14 2 49 7 79 10 30 3 57 7 60 9 3 2 56 7 116 11 61 4 112 8
114 10 5 6 460 -3 516 -9z"/>
</g>
</svg>
